<svg width="147" height="98" viewBox="0 0 147 98" fill="none" xmlns="http://www.w3.org/2000/svg">
<path d="M19.8633 69.4284L11.1162 71.098L10.1443 81.0745L19.0129 81.563L30.3516 81.2779V73.8263L19.8633 69.4284Z" fill="#5577FF"/>
<path d="M5.32523 50.86L3.94836 65.7635L87.9573 41.0055L86.0539 0L5.32523 50.86Z" fill="#5577FF"/>
<path d="M136.27 30.074L88.099 0.223999L90.0023 41.2091L122.703 60.3089L120.759 34.0849L136.27 30.074Z" fill="#5577FF"/>
<path d="M146.636 29.5243L122.905 35.6323L126.733 93.4127H146.636V29.5243Z" fill="#5577FF"/>
<path fill-rule="evenodd" clip-rule="evenodd" d="M5.83142 67.3311L10.286 69.184L20.086 67.3108L32.3765 72.4823V83.2733L18.9926 83.5992L8.99011 83.0493L0 83.1917V86.7753L6.86407 87.3046L12.0475 86.8974L110.696 97.2404L124.707 93.6569L122.886 62.915L88.828 42.8785L5.83142 67.3311ZM86.2768 55.7055L88.504 55.3186L92.9991 59.0446L92.8772 87.9764L89.3139 88.2004L87.127 88.0172L86.2768 55.7055ZM70.0581 58.7391L74.3912 61.6711L72.751 86.4496L69.4709 86.6328L67.9319 86.4902L68.3978 59.0446L70.0581 58.7391ZM40.6783 64.2161L44.3836 66.0688L41.974 84.0469L39.3418 84.2099L38.5319 84.108L39.5848 64.3994L40.6783 64.2161ZM54.6089 61.61L53.1712 61.8951L52.503 85.2482L53.5964 85.35L56.6337 85.1871L58.6179 63.9921L54.6089 61.61Z" fill="#5577FF"/>
</svg>
